<?xml version="1.0" standalone="no"?><!DOCTYPE svg PUBLIC "-//W3C//DTD SVG 1.1//EN" "http://www.w3.org/Graphics/SVG/1.1/DTD/svg11.dtd"><svg t="1493367882672" class="icon" style="" viewBox="0 0 1024 1024" version="1.1" xmlns="http://www.w3.org/2000/svg" p-id="19636" xmlns:xlink="http://www.w3.org/1999/xlink" width="200" height="200"><defs><style type="text/css"></style></defs><path d="M832 736l-64 0 0-64 32 0 0-64-608 0 0 64 32 0 0 64-64 0c-17.664 0-32-14.336-32-32l0-320c0-30.944 128-64 352-64 11.872 0 22.368 0 32 0 222.016 0 352 32.32 352 64l0 320c0 17.664-14.304 32-32 32zM752 416c-26.496 0-48 21.504-48 48s21.504 48 48 48 48-21.504 48-48-21.504-48-48-48zM256 128c0-17.696 14.336-32 32-32l416 0c17.696 0 32 14.304 32 32l0 160-480 0 0-160zM736 928c0 17.664-14.304 32-32 32l-416 0c-17.664 0-32-14.336-32-32l0-288 480 0 0 288zM672 672l-352 0 0 32 352 0 0-32zM672 736l-352 0 0 32 352 0 0-32zM672 800l-352 0 0 32 352 0 0-32zM672 864l-352 0 0 32 352 0 0-32z" p-id="19637" fill="#8b1586"></path></svg>