<?xml version="1.0" standalone="no"?><!DOCTYPE svg PUBLIC "-//W3C//DTD SVG 1.1//EN" "http://www.w3.org/Graphics/SVG/1.1/DTD/svg11.dtd"><svg t="1493085203627" class="icon" style="" viewBox="0 0 1024 1024" version="1.1" xmlns="http://www.w3.org/2000/svg" p-id="20404" xmlns:xlink="http://www.w3.org/1999/xlink" width="200" height="200"><defs><style type="text/css"></style></defs><path d="M984.901818 309.061818c-11.170909-14.894545-27.927273-24.203636-48.407273-24.203636H258.792727c-11.170909 0-20.48 9.309091-20.48 20.48 0 11.170909 9.309091 20.48 20.48 20.48h677.701818c5.585455 0 11.170909 1.861818 14.894546 7.447273 1.861818 1.861818 5.585455 7.447273 1.861818 14.894545l-100.538182 342.574545c-3.723636 9.309091-9.309091 14.894545-18.618182 14.894546H271.825455c-7.447273 0-14.894545-5.585455-18.618182-13.032727l-186.181818-614.4c-1.861818-11.170909-13.032727-16.756364-24.203637-13.032728-11.170909 1.861818-16.756364 13.032727-13.032727 24.203637l186.181818 612.538182c7.447273 24.203636 31.650909 40.96 55.854546 40.96h562.26909c26.065455 0 48.407273-16.756364 55.854546-42.821819l102.4-342.574545c5.585455-14.894545 1.861818-33.512727-7.447273-48.407273zM281.134545 798.72c-18.618182 16.756364-29.789091 39.098182-31.650909 63.301818-1.861818 24.203636 5.585455 48.407273 22.341819 67.025455 18.618182 20.48 44.683636 31.650909 70.74909 31.650909 22.341818 0 42.821818-7.447273 61.44-22.341818 39.098182-33.512727 42.821818-93.090909 9.309091-132.189091-33.512727-37.236364-93.090909-40.96-132.189091-7.447273z m98.676364 113.570909c-22.341818 20.48-57.716364 18.618182-78.196364-5.585454-9.309091-11.170909-14.894545-26.065455-13.032727-40.96s7.447273-27.927273 18.618182-39.098182c11.170909-9.309091 24.203636-13.032727 37.236364-13.032728 14.894545 0 31.650909 5.585455 42.821818 18.618182 16.756364 24.203636 14.894545 59.578182-7.447273 80.058182zM785.687273 776.378182c-24.203636-1.861818-48.407273 5.585455-67.025455 22.341818S688.872727 837.818182 687.010909 862.021818s5.585455 48.407273 22.341818 67.025455 39.098182 29.789091 63.301818 31.650909h7.447273c22.341818 0 44.683636-7.447273 61.44-22.341818 39.098182-33.512727 42.821818-93.090909 9.309091-132.189091-18.618182-16.756364-40.96-27.927273-65.163636-29.789091z m29.789091 135.912727c-11.170909 9.309091-26.065455 14.894545-40.96 13.032727s-27.927273-7.447273-39.098182-18.618181c-9.309091-11.170909-14.894545-26.065455-13.032727-40.96s7.447273-27.927273 18.618181-39.098182c11.170909-9.309091 24.203636-13.032727 37.236364-13.032728 14.894545 0 31.650909 5.585455 42.821818 18.618182 20.48 24.203636 16.756364 59.578182-5.585454 80.058182z" p-id="20405" fill="#F07E58"></path></svg>