<?xml version="1.0" standalone="no"?><!DOCTYPE svg PUBLIC "-//W3C//DTD SVG 1.1//EN" "http://www.w3.org/Graphics/SVG/1.1/DTD/svg11.dtd"><svg t="1493169987399" class="icon" style="" viewBox="0 0 1193 1024" version="1.1" xmlns="http://www.w3.org/2000/svg" p-id="10839" xmlns:xlink="http://www.w3.org/1999/xlink" width="233.0078125" height="200"><defs><style type="text/css"></style></defs><path d="M1179.816271 195.864677" p-id="10840" fill="#bfbfbf"></path><path d="M1178.010142 199.138287c0.714926-2.345459 1.216629-4.766174 1.216629-7.3374 0-13.834448-11.225595-25.0475-25.034957-25.0475-9.569976 0-17.785356 5.43093-22.0122 13.320203 0.100341-0.351192 0.163053-0.702384 0.263394-1.041033L1131.213836 181.867176c-0.062713 0.112883-0.112883 0.238309-0.163053 0.351192L971.609711 570.310379C970.505965 572.80635 964.422822 576.957938 959.518679 576.957938L430.699101 576.957938 343.66625 188.138458l-27.016683-120.697092C308.271135 29.625536 270.706156 0 231.121825 0L25.085128 0C11.238137 0 0 11.225595 0 25.085128c0 13.846991 11.225595 25.085128 25.085128 25.085128l206.036697 0c16.14228 0 33.225252 13.15715 36.549031 28.183141l159.679381 713.35832c-50.295681 13.596139-87.459298 59.48938-87.459298 114.036991 0 65.196247 53.055045 118.251292 118.251292 118.251292 65.20879 0 118.251292-53.042503 118.251292-118.251292 0-24.169521-7.312315-46.645795-19.817251-65.396928L886.508415 840.35178c-12.492394 18.751133-19.817251 41.227407-19.817251 65.396928 0 65.196247 53.042503 118.251292 118.251292 118.251292 65.20879 0 118.251292-53.042503 118.251292-118.251292 0-65.20879-53.042503-118.251292-118.251292-118.251292-8.528943 0-16.844663 0.940692-24.871904 2.684109L483.014135 790.181524c-1.56782-0.338649-3.173269-0.564415-4.766174-0.840352L441.937238 627.128194l517.581441 0c24.382744 0 48.828201-15.477524 58.084613-36.812425M966.166238 840.35178 978.319982 840.35178c3.850567 0 7.450283-0.92815 10.698807-2.470885 35.696137 2.119693 64.004703 31.644889 64.004703 67.867813 0 37.602607-30.47843 68.081037-68.081037 68.081037s-68.081037-30.47843-68.081037-68.081037C916.861419 874.668234 937.719703 848.504446 966.166238 840.35178zM453.438769 837.90598C456.674751 839.436173 460.249381 840.35178 464.074863 840.35178l12.843585 0c28.459077 8.140124 49.304819 34.303912 49.304819 65.396928 0 37.602607-30.47843 68.081037-68.081037 68.081037s-68.081037-30.47843-68.081037-68.081037C390.073737 869.739007 418.056197 840.35178 453.438769 837.90598z" p-id="10841" fill="#bfbfbf"></path></svg>