<?xml version="1.0" standalone="no"?><!DOCTYPE svg PUBLIC "-//W3C//DTD SVG 1.1//EN" "http://www.w3.org/Graphics/SVG/1.1/DTD/svg11.dtd"><svg t="1493366922430" class="icon" style="" viewBox="0 0 1024 1024" version="1.1" xmlns="http://www.w3.org/2000/svg" p-id="7687" xmlns:xlink="http://www.w3.org/1999/xlink" width="200" height="200"><defs><style type="text/css"></style></defs><path d="M384 0l426.666667 0q52.992 0 90.496 37.504t37.504 90.496l0 597.333333q0 52.992-37.504 90.496t-90.496 37.504l-426.666667 0q-52.992 0-90.496-37.504t-37.504-90.496l0-597.333333q0-52.992 37.504-90.496t90.496-37.504zM170.666667 178.005333l0 717.994667q0 17.664 12.501333 30.165333t30.165333 12.501333l547.328 0q-13.312 37.674667-46.336 61.482667t-74.325333 23.850667l-426.666667 0q-52.992 0-90.496-37.504t-37.504-90.496l0-597.333333q0-41.344 23.850667-74.325333t61.482667-46.336zM810.666667 85.333333l-426.666667 0q-17.664 0-30.165333 12.501333t-12.501333 30.165333l0 597.333333q0 17.664 12.501333 30.165333t30.165333 12.501333l426.666667 0q17.664 0 30.165333-12.501333t12.501333-30.165333l0-597.333333q0-17.664-12.501333-30.165333t-30.165333-12.501333z" p-id="7688" fill="#d81e06"></path></svg>