<?xml version="1.0" standalone="no"?><!DOCTYPE svg PUBLIC "-//W3C//DTD SVG 1.1//EN" "http://www.w3.org/Graphics/SVG/1.1/DTD/svg11.dtd"><svg t="1493367384970" class="icon" style="" viewBox="0 0 1024 1024" version="1.1" xmlns="http://www.w3.org/2000/svg" p-id="17221" xmlns:xlink="http://www.w3.org/1999/xlink" width="200" height="200"><defs><style type="text/css"></style></defs><path d="M891.050667 140.074667a22.912 22.912 0 0 0-31.445334 0c-1.28 1.237333-2.005333 2.730667-2.858666 4.181333l-290.133334 277.845333c-2.517333 1.962667-5.162667 3.669333-7.509333 5.930667-2.389333 2.261333-4.181333 4.778667-6.229333 7.210667l-21.248 20.394666 0.170666 0.213334a1737097.386667 1737097.386667 0 0 1-331.392 317.525333c-1.706667 1.28-4.821333 4.864-6.4 6.357333-26.026667 25.002667-24.704 66.432 1.322667 91.392a66.901333 66.901333 0 0 0 77.994667 11.392 44.373333 44.373333 0 0 0 12.629333-9.088c15.658667-15.061333 175.445333-194.133333 284.032-316.16 17.237333 11.904 37.845333 17.066667 58.069333 15.744 14.421333 4.181333 33.066667 0.682667 56.234667-21.546666 90.410667-86.613333 203.178667-293.461333 211.541333-388.224a20.693333 20.693333 0 0 0-4.778666-23.168z" p-id="17222" fill="#8c5605"></path><path d="M569.984 557.269333c15.488 10.666667 33.664 15.914667 51.882667 15.914667 1.450667 0 2.858667-0.085333 4.394666-0.170667l-161.664-132.053333a102.656 102.656 0 0 0-9.898666-123.52l1.28-1.237333-164.608-157.696-0.256 0.213333-0.085334-0.128a22.869333 22.869333 0 0 0-31.402666 0 20.778667 20.778667 0 0 0 0 30.165333l0.085333 0.085334 95.530667 91.562666-0.512 0.085334a20.565333 20.565333 0 0 1-0.384 29.525333 22.912 22.912 0 0 1-31.274667 0.128l-0.042667 0.042667-94.976-91.008-0.213333 0.213333-0.085333-0.128a22.912 22.912 0 0 0-31.445334 0 20.693333 20.693333 0 0 0 0 30.122667l0.128 0.085333-0.042666 0.042667L291.413333 340.48l-0.298666 0.213333a20.650667 20.650667 0 0 1-0.085334 29.994667 22.954667 22.954667 0 0 1-30.890666 0.384l-0.042667 0.128-95.36-91.349333-0.213333 0.170666-0.085334-0.085333a22.912 22.912 0 0 0-31.445333 0 20.650667 20.650667 0 0 0 0 30.122667l0.128 0.085333-0.042667 0.042667 164.608 157.653333 1.066667-1.024a114.645333 114.645333 0 0 0 129.152 9.386667c24.96 28.074667 63.957333 71.978667 107.093333 120.277333 11.904-13.312 24.106667-26.88 34.986667-39.210667zM881.792 787.456a12.373333 12.373333 0 0 0-3.2-5.802667c-11.008-10.496-106.794667-89.429333-206.976-171.52a88.234667 88.234667 0 0 1-32.810667 6.912c-4.906667 0-9.813333-0.426667-14.72-1.322666-0.810667 0.085333-1.493333 0.085333-2.304 0.085333-14.165333 0-28.032-2.218667-41.258666-6.357333l-16.981334 19.114666c90.496 101.504 189.482667 212.138667 214.784 238.72l0.469334 0.554667c0.042667 0.042667 0.128 0.042667 0.170666 0.170667 1.792 1.834667 3.669333 3.84 4.565334 4.650666a13.610667 13.610667 0 0 0 8.021333 3.242667c25.685333 15.232 59.349333 13.312 81.621333-8.064a61.994667 61.994667 0 0 0 8.618667-80.384z" p-id="17223" fill="#8c5605"></path></svg>