<?xml version="1.0" standalone="no"?><!DOCTYPE svg PUBLIC "-//W3C//DTD SVG 1.1//EN" "http://www.w3.org/Graphics/SVG/1.1/DTD/svg11.dtd"><svg t="1493367090272" class="icon" style="" viewBox="0 0 1024 1024" version="1.1" xmlns="http://www.w3.org/2000/svg" p-id="11382" xmlns:xlink="http://www.w3.org/1999/xlink" width="200" height="200"><defs><style type="text/css"></style></defs><path d="M928 168c0-17.6-14.408-32-32-32H128c-17.6 0-32 14.4-32 32v480h832V168z m-32 448H128V168h768v448zM928 664H96L0 856v8c0 17.6 6.4 24 24 24h976c17.592 0 24-6.4 24-24v-8l-96-192z m-296 184H392c-4.4 0-7.408-3.544-6.68-7.888l5.368-32.216c0.712-4.352 4.912-7.896 9.312-7.896h224c4.392 0 8.592 3.544 9.312 7.888l5.376 32.216c0.72 4.352-2.296 7.896-6.688 7.896z m320.16-60H72a4 4 0 0 1-3.576-5.784l48-96A3.984 3.984 0 0 1 120 684h784c1.512 0 2.888 0.856 3.576 2.208l47.544 95.12a4 4 0 0 1-2.96 6.672z" fill="#13227a" p-id="11383"></path><path d="M684.608 716l-4-24h-46.936l2 24zM627.656 716l-2-24h-47v24zM453.328 724h54.664v24h-54.664zM453.328 692h54.664v24h-54.664zM445.328 716v-24h-46.984l-2 24zM741.528 716l-6-24H688.72l4 24zM855.328 716l-10-24h-46.44l8 24zM913.528 716l-12-24h-47.528l10 24zM798.456 716l-8-24h-46.672l6 24zM222.88 724l-8 24h51.328l6-24zM165.328 724l-10 24h51.12l8-24zM516 724h54.664v24H516zM395.672 724l-2 24h51.656v-24zM516 692h54.664v24H516zM338.048 724l-4 24h51.608l2-24zM280.448 724l-6 24h51.496l4-24zM274.208 716l6-24h-46.664l-8 24zM170 692h-47.528l-12 24H160zM332.72 756l-4 24h54.264l2-24zM212.208 756l-8 24h54l6-24zM574.656 756H393.008l-2 24h241.976l-2-24zM272.448 756l-6 24h54.16l4-24zM152 756l-10 24h53.784l8-24zM156.664 724h-50.192l-12 24h52.192zM90.472 756l-12 24h54.864l10-24zM820.216 756l8 24h53.784l-10-24zM388.32 716l2-24h-46.936l-4 24zM639.016 756l2 24h54.264l-4-24zM890.672 780h54.856l-12-24h-52.856zM877.328 748h52.2l-12-24h-50.2zM331.272 716l4-24h-46.824l-6 24zM699.392 756l4 24h54.136l-6-24zM630.312 748l-2-24h-49.656v24zM759.784 756l6 24h54l-8-24zM217.12 716l8-24h-46.456l-10 24zM689.936 748l-4-24h-49.592l2 24zM749.528 748l-6-24h-49.48l4 24zM809.112 748l-8-24h-49.328l6 24zM868.656 748l-10-24h-49.112l8 24z" fill="#13227a" p-id="11384"></path></svg>