<?xml version="1.0" standalone="no"?><!DOCTYPE svg PUBLIC "-//W3C//DTD SVG 1.1//EN" "http://www.w3.org/Graphics/SVG/1.1/DTD/svg11.dtd"><svg t="1493085096464" class="icon" style="" viewBox="0 0 1024 1024" version="1.1" xmlns="http://www.w3.org/2000/svg" p-id="18464" xmlns:xlink="http://www.w3.org/1999/xlink" width="200" height="200"><defs><style type="text/css"></style></defs><path d="M512.000512 550.944987c-133.816728 0-242.676042-108.859313-242.676042-242.673995 0-133.805472 108.859313-242.686275 242.676042-242.686275 133.804449 0 242.672972 108.880803 242.672972 242.686275C754.673483 442.085674 645.80496 550.944987 512.000512 550.944987M512.000512 98.743932c-115.541503 0-209.515804 93.995791-209.515804 209.527061 0 115.530246 93.974301 209.514781 209.515804 209.514781 115.51899 0 209.514781-93.983511 209.514781-209.514781C721.515293 192.739722 627.519502 98.743932 512.000512 98.743932" p-id="18465" fill="#F07E58"></path><path d="M665.947719 301.470099c-3.046383 0-5.5279-2.473331-5.5279-5.526877 0-66.083068-47.27777-121.69362-112.411209-132.218324-3.022847-0.48607-5.063319-3.313465-4.576225-6.326079 0.473791-3.010567 3.291976-5.192256 6.326079-4.576225 70.52831 11.388375 121.714086 71.576175 121.714086 143.120628C671.473573 298.997791 668.990009 301.470099 665.947719 301.470099" p-id="18466" fill="#F07E58"></path><path d="M511.664867 531.549242c243.020896 0 418.880159 139.503241 418.880159 331.726194l0.3776 16.363689c0.324388 8.225335 0.366344 21.718651-2.051729 51.466162-0.734734 9.154497-10.989285 15.998369-22.645766 15.500019-11.766998-0.582261-20.702508-8.462742-19.958564-17.593703 2.298346-28.387537 2.266623-40.866756 1.964748-48.574299l-0.376577-16.861016c0-176.095647-154.402579-298.868855-375.444904-298.868855-0.400113 0-1.339508 0-1.738597-0.044002-220.059951 0.044002-374.437971 122.81721-374.437971 298.610982l-0.627287 22.213931c-0.020466 1.857301 0.345877 15.565511 2.062985 39.766702l501.356592 0c11.787464 0 21.350261 7.447623 21.350261 16.579607 0 9.152451-9.56382 16.579607-21.350261 16.579607L117.536438 958.414259c-11.290137 0-20.61655-6.800893-21.307282-15.544021-2.850931-35.469839-3.433192-56.302307-3.292999-58.417481l0.615007-21.545712C93.530698 671.052482 269.388938 531.549242 511.664867 531.549242" p-id="18467" fill="#F07E58"></path></svg>