<?xml version="1.0" standalone="no"?><!DOCTYPE svg PUBLIC "-//W3C//DTD SVG 1.1//EN" "http://www.w3.org/Graphics/SVG/1.1/DTD/svg11.dtd"><svg t="1493084491552" class="icon" style="" viewBox="0 0 1024 1024" version="1.1" xmlns="http://www.w3.org/2000/svg" p-id="6417" xmlns:xlink="http://www.w3.org/1999/xlink" width="200" height="200"><defs><style type="text/css"></style></defs><path d="M512 1024C229.236364 1024 0 794.763636 0 512S229.236364 0 512 0s512 229.236364 512 512S794.763636 1024 512 1024zM512 46.533818C254.929455 46.533818 46.533818 254.929455 46.533818 512S254.929455 977.466182 512 977.466182 977.466182 769.070545 977.466182 512 769.070545 46.533818 512 46.533818z" p-id="6418" fill="#F07E58"></path><path d="M814.731636 883.991273c0-0.384 0.058182-0.756364 0.058182-1.152 0-167.226182-135.563636-302.789818-302.789818-302.789818-167.028364 0-302.429091 135.249455-302.754909 302.184727l-46.021818-0.128c0.314182-153.658182 100.096-283.741091 238.301091-329.925818-72.494545-39.284364-121.716364-116.026182-121.716364-204.264727 0-128.244364 103.959273-232.203636 232.203636-232.203636S744.203636 219.682909 744.203636 347.927273c0 88.238545-49.221818 164.980364-121.716364 204.264727C760.901818 598.446545 860.8 728.866909 860.8 882.850909c0 0.430545-0.058182 0.849455-0.058182 1.28L814.731636 883.991273zM698.170182 347.927273c0-102.818909-83.351273-186.181818-186.170182-186.181818s-186.170182 83.351273-186.170182 186.181818c0 102.632727 83.060364 185.844364 185.634909 186.146909 0.186182 0 0.360727-0.023273 0.535273-0.023273s0.360727 0.023273 0.535273 0.023273C615.109818 533.783273 698.170182 450.571636 698.170182 347.927273z" p-id="6419" fill="#F07E58"></path></svg>