<?xml version="1.0" standalone="no"?><!DOCTYPE svg PUBLIC "-//W3C//DTD SVG 1.1//EN" "http://www.w3.org/Graphics/SVG/1.1/DTD/svg11.dtd"><svg t="1493367138525" class="icon" style="" viewBox="0 0 1024 1024" version="1.1" xmlns="http://www.w3.org/2000/svg" p-id="12289" xmlns:xlink="http://www.w3.org/1999/xlink" width="200" height="200"><defs><style type="text/css"></style></defs><path d="M503.424 886.656c-101.056 98.24-263.424 97.792-363.776-1.344s-100.8-259.584-1.344-359.36l-0.128-0.064 410.944-405.888c75.648-74.688 198.272-74.688 273.92 0s75.648 195.84 0 270.592l-411.008 405.76c-50.496 48.384-131.072 48.064-181.056-1.28-49.92-49.344-50.24-128.96-1.344-178.88l-0.192-0.064 45.632-45.12 56.256-55.488 57.472-56.896 122.496-121.024 83.52-82.24 45.632 45.12-44.288 43.584-47.04 46.592-273.984 270.592c-25.216 24.896-25.216 65.28 0 90.176s66.112 24.96 91.328 0l410.816-406.08c0.448-0.512 1.024-0.896 1.536-1.344 50.432-49.792 50.432-130.56 0-180.352s-132.224-49.856-182.656 0c-0.384 0.512-0.768 1.088-1.28 1.6l-0.064-0.128-410.944 405.888c-75.712 74.752-75.712 195.904 0 270.656 75.648 74.752 198.272 74.752 273.92 0l456.64-451.008 45.568 45.056-456.576 450.944z" p-id="12290" fill="#d4237a"></path></svg>