<?xml version="1.0" standalone="no"?><!DOCTYPE svg PUBLIC "-//W3C//DTD SVG 1.1//EN" "http://www.w3.org/Graphics/SVG/1.1/DTD/svg11.dtd"><svg t="1493084168400" class="icon" style="" viewBox="0 0 1024 1024" version="1.1" xmlns="http://www.w3.org/2000/svg" p-id="1016" xmlns:xlink="http://www.w3.org/1999/xlink" width="200" height="200"><defs><style type="text/css"></style></defs><path d="M139.729455 651.869091l-46.545455 0 0 279.272727 23.272727 0 23.272727 0L372.829091 931.141818l0-46.545455L139.729455 884.596364 139.729455 651.869091zM139.729455 139.869091L372.829091 139.869091l0-46.545455L139.729455 93.323636l-23.272727 0-23.272727 0L93.184 372.363636l46.545455 0L139.729455 139.869091zM884.456727 372.363636l46.545455 0L931.002182 139.869091l0-46.545455-46.545455 0L651.636364 93.323636l0 46.545455 232.773818 0L884.410182 372.363636zM884.456727 884.596364L651.636364 884.596364l0 46.545455 232.773818 0 46.545455 0 0-46.545455 0-232.727273-46.545455 0L884.410182 884.596364zM46.498909 488.634182L46.498909 535.272727l931.188364 0 0-46.638545L46.498909 488.634182z" p-id="1017" fill="#ffffff"></path></svg>