<?xml version="1.0" standalone="no"?><!DOCTYPE svg PUBLIC "-//W3C//DTD SVG 1.1//EN" "http://www.w3.org/Graphics/SVG/1.1/DTD/svg11.dtd"><svg t="1493701461403" class="icon" style="" viewBox="0 0 1088 1024" version="1.1" xmlns="http://www.w3.org/2000/svg" p-id="12740" xmlns:xlink="http://www.w3.org/1999/xlink" width="170" height="160"><defs><style type="text/css"></style></defs><path d="M65.344 965.44 65.344 1021.696 1088 1021.696 1088 834.304 193.728 834.304C122.752 834.304 65.344 892.992 65.344 965.44L65.344 965.44Z" p-id="12741" fill="#515151"></path><path d="M386.24 768 444.992 768C515.648 768 572.992 708.736 572.992 635.712L572.992 514.368 258.24 514.368 258.24 577.792 194.24 577.792 194.24 635.712 258.24 635.712C258.24 708.736 315.648 768 386.24 768L386.24 768Z" p-id="12742" fill="#515151"></path><path d="M69.312 5.312 69.312 122.688C69.312 191.552 123.776 183.296 192 186.112L192 253.312 322.688 253.312 322.688 381.312 384 381.312 384 440 445.376 440 445.376 253.312 568 253.312 568 186.688 704 186.688 704 766.976 1088 766.976 1088 5.312 69.312 5.312 69.312 5.312ZM386.688 197.376 314.688 197.376 314.688 122.624 386.688 122.624 386.688 197.376 386.688 197.376ZM514.688 197.376 442.688 197.376 442.688 122.624 514.688 122.624 514.688 197.376 514.688 197.376Z" p-id="12743" fill="#515151"></path></svg>