<?xml version="1.0" standalone="no"?><!DOCTYPE svg PUBLIC "-//W3C//DTD SVG 1.1//EN" "http://www.w3.org/Graphics/SVG/1.1/DTD/svg11.dtd"><svg t="1493366980589" class="icon" style="" viewBox="0 0 1024 1024" version="1.1" xmlns="http://www.w3.org/2000/svg" p-id="8547" xmlns:xlink="http://www.w3.org/1999/xlink" width="200" height="200"><defs><style type="text/css"></style></defs><path d="M108.8 320l281.6 281.6L672 320z" fill="#d81e06" p-id="8548"></path><path d="M531.2 896H416v-227.2l6.4-3.2 316.8-313.6c16-16 19.2-41.6 12.8-60.8-9.6-16-28.8-35.2-48-35.2H73.6c-19.2 0-38.4 19.2-44.8 35.2-9.6 19.2-3.2 44.8 9.6 60.8l310.4 316.8V896H249.6c-19.2 0-32 12.8-32 32s12.8 32 32 32h281.6c19.2 0 32-12.8 32-32s-16-32-32-32zM108.8 320H672l-281.6 281.6L108.8 320z" fill="#d81e06" p-id="8549"></path><path d="M844.8 60.8c-102.4-32-214.4 12.8-265.6 108.8-9.6 16-3.2 35.2 12.8 41.6 16 9.6 35.2 3.2 41.6-12.8 35.2-67.2 115.2-102.4 188.8-76.8 83.2 25.6 128 115.2 102.4 198.4-22.4 73.6-96 118.4-172.8 108.8-16-3.2-35.2 9.6-35.2 25.6-3.2 16 9.6 35.2 25.6 35.2 9.6 0 22.4 3.2 32 3.2 96 0 179.2-60.8 211.2-153.6 41.6-115.2-22.4-240-140.8-278.4z" fill="#d81e06" p-id="8550"></path></svg>